<?xml version="1.0" encoding="UTF-8"?>
<svg width="18" height="18" viewBox="0 0 18 18" xmlns="http://www.w3.org/2000/svg">
    <path d="M14.537 9.844c-.02-2.213 1.809-3.275 1.89-3.325-.987-1.447-2.52-1.647-3.067-1.67-1.305-.133-2.547.769-3.207.769-.66 0-1.68-.75-2.76-.73-1.42.021-2.728.825-3.458 2.095-1.474 2.558-.377 6.345 1.06 8.422.703 1.016 1.54 2.157 2.64 2.116 1.06-.042 1.46-.686 2.74-.686 1.28 0 1.64.686 2.76.665 1.14-.02 1.862-1.037 2.558-2.053.807-1.178 1.139-2.32 1.16-2.378-.025-.011-2.227-.855-2.248-3.393l-.068.168zM12.238 3.06c.584-.708.978-1.692.87-2.673-.84.034-1.856.56-2.46 1.267-.54.626-1.012 1.63-.885 2.59.937.073 1.894-.477 2.475-1.184z" fill="#000000"/>
</svg> 